<svg width="44" height="46" fill="none" xmlns="http://www.w3.org/2000/svg"><path d="M14.717 35.704c0 .18-.204.323-.461.323-.293.027-.497-.117-.497-.323 0-.18.204-.324.461-.324.266-.027.497.117.497.324zm-2.759-.404c-.062.18.115.386.381.44.231.09.497 0 .55-.18.054-.18-.115-.386-.38-.467-.232-.063-.489.027-.55.207zm3.921-.153c-.257.063-.435.233-.408.44.027.18.257.297.523.234.258-.063.435-.234.408-.414-.026-.17-.266-.287-.523-.26zM21.716.719C9.412.719 0 10.179 0 22.64c0 9.963 6.192 18.49 15.036 21.49 1.136.207 1.535-.503 1.535-1.087 0-.557-.027-3.63-.027-5.516 0 0-6.21 1.347-7.513-2.678 0 0-1.012-2.614-2.466-3.288 0 0-2.032-1.41.141-1.384 0 0 2.21.18 3.425 2.318 1.942 3.468 5.198 2.471 6.467 1.878.204-1.437.78-2.435 1.419-3.028-4.959-.556-9.962-1.284-9.962-9.927 0-2.471.674-3.71 2.093-5.292-.23-.584-.984-2.992.231-6.1 1.854-.584 6.121 2.425 6.121 2.425a20.597 20.597 0 015.571-.763c1.89 0 3.797.26 5.57.763 0 0 4.268-3.018 6.122-2.425 1.215 3.117.461 5.516.23 6.1 1.42 1.59 2.29 2.83 2.29 5.292 0 8.67-5.226 9.361-10.185 9.927.817.71 1.509 2.058 1.509 4.17 0 3.027-.027 6.773-.027 7.51 0 .584.408 1.294 1.535 1.087C37.984 41.13 44 32.604 44 22.641 44 10.179 34.02.719 21.716.719zM8.623 31.706c-.116.09-.09.296.062.467.142.144.346.207.461.09.115-.09.089-.297-.062-.467-.142-.144-.346-.207-.461-.09zm-.958-.728c-.063.117.026.26.204.35.141.09.319.063.381-.062.062-.117-.027-.26-.204-.35-.177-.055-.32-.028-.381.062zm2.874 3.199c-.142.116-.089.386.115.557.204.206.461.233.577.09.115-.117.062-.387-.116-.558-.195-.206-.461-.233-.576-.09zm-1.012-1.321c-.142.09-.142.323 0 .53.142.207.382.296.497.207.142-.117.142-.35 0-.558-.124-.206-.355-.296-.497-.18z" fill="#fff"/></svg>