<svg width="56" height="39" fill="none" xmlns="http://www.w3.org/2000/svg"><g clip-path="url(#clip0_9_8)"><path d="M49.423 38.691H3.343c-1.787 0-3.292-1.407-3.292-3.176V3.393C.051 1.668 1.51.217 3.343.217h46.08c1.787 0 3.292 1.406 3.292 3.176v32.122c0 1.77-1.458 3.176-3.292 3.176z" fill="#fff"/><path d="M.572 3.036h0v-.01a2.4 2.4 0 01.487-1.189C1.973.65 3.786.367 5.079 1.262c0 0 0 0 0 0l21.017 14.745.288.202.287-.203 21.16-14.927.002-.002a2.847 2.847 0 013.917.618h0l.005.006c.482.627.628 1.39.472 2.099l-.011.053V35.56c0 1.427-1.212 2.631-2.792 2.631h-2.791V8.572l-.787.55-19.51 13.669L6.922 9.192l-.787-.551v29.55H3.343c-1.575 0-2.792-1.2-2.792-2.676V3.347c0-.114.008-.217.02-.311z" fill="#001E11" stroke="#F0EBEB"/></g><defs><clipPath id="clip0_9_8"><path fill="#fff" transform="translate(0 .035)" d="M0 0h55.2v38.737H0z"/></clipPath></defs></svg>