<svg width="44" height="46" fill="none" xmlns="http://www.w3.org/2000/svg"><g clip-path="url(#clip0_9_6)"><path d="M37.486 38.631h-6.515V28.332c0-2.456-.05-5.617-3.396-5.617-3.397 0-3.916 2.673-3.916 5.436v10.48h-6.515v-21.18h6.259v2.888h.084c.874-1.665 3.001-3.422 6.178-3.422 6.602 0 7.823 4.383 7.823 10.089V38.63h-.002zM9.785 14.554c-2.098 0-3.783-1.713-3.783-3.82 0-2.104 1.687-3.815 3.782-3.815 2.09 0 3.784 1.711 3.784 3.816 0 2.106-1.695 3.819-3.784 3.819zm3.267 24.077H6.518v-21.18h6.534v21.18zM40.745.807h-37.5C1.453.807 0 2.24 0 4.005v37.99c0 1.769 1.452 3.198 3.247 3.198H40.74c1.793 0 3.26-1.43 3.26-3.197V4.005C44 2.239 42.533.807 40.74.807h.006z" fill="#fff"/></g><defs><clipPath id="clip0_9_6"><path fill="#fff" transform="translate(0 .807)" d="M0 0h44v44.386H0z"/></clipPath></defs></svg>